<?xml version="1.0" encoding="iso-8859-1"?>
<!-- Generator: Adobe Illustrator 19.0.0, SVG Export Plug-In . SVG Version: 6.00 Build 0)  -->
<svg version="1.1" id="Layer_1" xmlns="http://www.w3.org/2000/svg" xmlns:xlink="http://www.w3.org/1999/xlink" x="0px" y="0px"
	 viewBox="0 0 496 496" style="enable-background:new 0 0 496 496;" xml:space="preserve">
<g>
	<path style="fill:#364B4C;" d="M88,389.2c0,12-5.6,20-18.4,20H47.2c-12,0-15.2-8-15.2-20V378c0-12,8.8-24.8,20.8-24.8H64
		c12,0,24,12,24,24.8V389.2z"/>
	<path style="fill:#364B4C;" d="M464,389.2c0,12-3.2,20-15.2,20h-22.4c-12,0-18.4-8-18.4-20V378c0-12,11.2-24.8,24-24.8h11.2
		c12,0,20.8,12,20.8,24.8V389.2z"/>
</g>
<path style="fill:#77AFAF;" d="M496,360.4c0,17.6-16,32.8-36,32.8H36c-20,0-36-14.4-36-32.8v-140c0-17.6,16-35.2,36-35.2h424
	c20,0,36,17.6,36,35.2V360.4z"/>
<path style="fill:#95C4C9;" d="M496,338.8c0,17.6-16,30.4-36,30.4H36c-20,0-36-12.8-36-30.4v-140c0-17.6,16-29.6,36-29.6h424
	c20,0,36,12,36,29.6V338.8z"/>
<g>
	<path style="fill:#84B9BC;" d="M219.2,227.6c0,26.4,8.8,86.4,23.2,142.4h190.4c14.4-56,23.2-116,23.2-142.4
		c0-21.6-6.4-41.6-16.8-57.6H236C225.6,185.2,219.2,205.2,219.2,227.6z"/>
	<path style="fill:#84B9BC;" d="M460,169.2H36c-20,0-36,12-36,29.6v26.4c0-17.6,16-32,36-32h424c20,0,36,14.4,36,32v-26.4
		C496,181.2,480,169.2,460,169.2z"/>
</g>
<circle style="fill:#B4D9DB;" cx="337.6" cy="205.2" r="118.4"/>
<path style="fill:#95C4C9;" d="M455.2,205.2c0,64.8-52.8,118.4-118.4,118.4s-118.4-52.8-118.4-118.4S272,103.6,337.6,103.6
	S455.2,140.4,455.2,205.2z"/>
<circle style="fill:#84B9BC;" cx="337.6" cy="224.4" r="68.8"/>
<circle style="fill:#364B4C;" cx="337.6" cy="205.2" r="68.8"/>
<path style="fill:#203030;" d="M288.8,156.4c27.2-27.2,70.4-27.2,97.6,0s27.2,70.4,0,97.6"/>
<circle style="fill:#51CE00;" cx="337.6" cy="205.2" r="32.8"/>
<path style="fill:#2DB700;" d="M304.8,205.2c0-18.4,14.4-32.8,32.8-32.8s32.8,14.4,32.8,32.8"/>
<g>
	<path style="fill:#4E8484;" d="M56,294.8c0,4-4,7.2-8,7.2l0,0c-4,0-8-3.2-8-7.2v-66.4c0-4,4-7.2,8-7.2l0,0c4,0,8,3.2,8,7.2V294.8z"
		/>
	<path style="fill:#4E8484;" d="M88,294.8c0,4-4,7.2-8,7.2l0,0c-4,0-8-3.2-8-7.2v-66.4c0-4,4-7.2,8-7.2l0,0c4,0,8,3.2,8,7.2V294.8z"
		/>
	<path style="fill:#4E8484;" d="M120,294.8c0,4-4,7.2-8,7.2l0,0c-4,0-8-3.2-8-7.2v-66.4c0-4,4-7.2,8-7.2l0,0c4,0,8,3.2,8,7.2V294.8z
		"/>
</g>
<g>
</g>
<g>
</g>
<g>
</g>
<g>
</g>
<g>
</g>
<g>
</g>
<g>
</g>
<g>
</g>
<g>
</g>
<g>
</g>
<g>
</g>
<g>
</g>
<g>
</g>
<g>
</g>
<g>
</g>
</svg>
